<svg xmlns="http://www.w3.org/2000/svg" viewBox="0 0 320 320">
<path fill-rule="evenodd" d="M 185,110 L 184,112 L 185,116 L 190,116 L 191,114 L 190,110 L 188,109 Z M 155,53 L 154,54 L 145,54 L 144,55 L 140,55 L 139,56 L 136,56 L 135,57 L 127,59 L 113,66 L 110,69 L 109,69 L 106,72 L 105,72 L 96,81 L 96,82 L 92,86 L 92,87 L 88,92 L 83,102 L 83,104 L 80,110 L 80,113 L 79,114 L 79,117 L 78,118 L 78,123 L 77,124 L 77,142 L 78,143 L 78,149 L 79,150 L 80,157 L 81,158 L 82,163 L 84,166 L 84,168 L 93,186 L 95,188 L 96,191 L 98,193 L 98,194 L 100,196 L 100,197 L 102,199 L 106,206 L 109,209 L 109,210 L 112,213 L 112,214 L 116,218 L 116,219 L 119,222 L 119,223 L 125,229 L 125,230 L 131,236 L 131,237 L 144,250 L 144,251 L 155,262 L 156,262 L 158,264 L 162,264 L 182,244 L 182,243 L 190,235 L 190,234 L 201,222 L 201,221 L 205,217 L 205,216 L 214,205 L 214,204 L 224,190 L 225,187 L 227,185 L 235,169 L 235,167 L 238,161 L 238,158 L 240,154 L 241,144 L 242,143 L 242,124 L 241,123 L 241,118 L 240,117 L 240,114 L 239,113 L 239,110 L 238,109 L 237,104 L 231,92 L 229,90 L 227,86 L 223,82 L 223,81 L 215,73 L 214,73 L 210,69 L 209,69 L 204,65 L 192,59 L 190,59 L 189,58 L 187,58 L 183,56 L 180,56 L 179,55 L 174,55 L 173,54 Z M 201,150 L 203,152 L 202,153 L 202,158 L 201,159 L 201,162 L 200,163 L 200,165 L 197,171 L 194,174 L 194,175 L 184,183 L 180,184 L 179,185 L 177,185 L 176,186 L 173,186 L 171,187 L 170,186 L 170,174 L 171,173 L 171,164 L 172,163 L 173,151 L 174,150 L 179,150 L 180,149 L 196,149 L 197,150 Z M 173,142 L 176,140 L 183,140 L 184,139 L 200,140 L 203,143 L 203,148 L 202,149 L 195,149 L 194,148 L 182,148 L 181,149 L 174,149 L 173,148 Z M 178,94 L 197,94 L 198,95 L 198,103 L 199,104 L 199,116 L 200,117 L 200,126 L 201,127 L 201,135 L 202,136 L 202,139 L 201,140 L 199,139 L 177,139 L 175,140 L 174,139 L 174,134 L 175,133 L 175,121 L 176,120 L 176,106 L 177,105 L 177,95 Z M 176,90 L 177,89 L 198,89 L 199,90 L 199,92 L 197,94 L 178,94 Z M 116,83 L 118,84 L 119,83 L 120,84 L 121,83 L 122,84 L 127,84 L 129,83 L 130,84 L 139,84 L 141,86 L 141,148 L 142,149 L 143,153 L 146,156 L 146,157 L 153,161 L 155,161 L 156,162 L 167,162 L 169,161 L 170,162 L 170,168 L 169,169 L 169,182 L 168,183 L 168,185 L 169,186 L 168,187 L 150,187 L 149,186 L 146,186 L 145,185 L 140,184 L 129,178 L 121,170 L 121,169 L 119,167 L 117,163 L 117,161 L 115,158 L 115,155 L 114,154 L 114,149 L 113,148 L 113,85 Z M 187,70 L 189,71 L 192,78 L 194,80 L 198,88 L 197,89 L 179,89 L 178,88 Z"/>
</svg>